<?xml version="1.0" encoding="utf-8"?>
<!-- Generator: Adobe Illustrator 24.0.2, SVG Export Plug-In . SVG Version: 6.00 Build 0)  -->
<svg version="1.1" id="Слой_1" xmlns="http://www.w3.org/2000/svg" xmlns:xlink="http://www.w3.org/1999/xlink" x="0px" y="0px"
	 viewBox="0 0 128 128" style="enable-background:new 0 0 128 128;" xml:space="preserve">
<style type="text/css">
	.st0{fill:#FFFFFF;}
	.st1{fill:#F15A24;}
	.st2{fill:#F4D9BF;}
	.st3{fill:#F15A24;stroke:#F15A24;stroke-width:5;stroke-miterlimit:10;}
	.st4{fill:none;stroke:#F15A24;stroke-miterlimit:10;}
</style>
<g>
	<path class="st0" d="M25,103.5c-0.83,0-1.5-0.67-1.5-1.5V25c0-0.83,0.67-1.5,1.5-1.5h77c0.83,0,1.5,0.67,1.5,1.5v77
		c0,0.83-0.67,1.5-1.5,1.5H25z"/>
	<path class="st1" d="M100,27v73H27V27H100 M102,20H25c-2.76,0-5,2.24-5,5v77c0,2.76,2.24,5,5,5h77c2.76,0,5-2.24,5-5V25
		C107,22.24,104.76,20,102,20L102,20z"/>
</g>
<g>
	<circle class="st2" cx="23.5" cy="104.5" r="20"/>
	<g>
		<path class="st1" d="M23.5,87c9.65,0,17.5,7.85,17.5,17.5S33.15,122,23.5,122S6,114.15,6,104.5S13.85,87,23.5,87 M23.5,82
			C11.07,82,1,92.07,1,104.5S11.07,127,23.5,127S46,116.93,46,104.5S35.93,82,23.5,82L23.5,82z"/>
	</g>
</g>
<g>
	<circle class="st2" cx="104.5" cy="23.5" r="20"/>
	<g>
		<path class="st1" d="M104.5,6c9.65,0,17.5,7.85,17.5,17.5S114.15,41,104.5,41S87,33.15,87,23.5S94.85,6,104.5,6 M104.5,1
			C92.07,1,82,11.07,82,23.5S92.07,46,104.5,46S127,35.93,127,23.5S116.93,1,104.5,1L104.5,1z"/>
	</g>
</g>
<polygon class="st3" points="30.91,73.83 23.6,82.99 15.9,74.15 "/>
<polygon class="st3" points="110.81,54.69 103.5,45.53 95.8,54.36 "/>
<path class="st4" d="M25,7.5"/>
<path class="st4" d="M7,7.5"/>
<g>
</g>
<g>
</g>
<g>
</g>
<g>
</g>
<g>
</g>
<g>
</g>
<g>
</g>
<g>
</g>
<g>
</g>
<g>
</g>
<g>
</g>
<g>
</g>
<g>
</g>
<g>
</g>
<g>
</g>
</svg>
